# xmcd CD database file
#
# Track frame offsets:
#	150
#	11346
#	19265
#	29642
#	40651
#	53834
#	65405
#	90770
#	94802
#	111003
#	130846
#	140552
#	163599
#	190714
#
# Disc length: 2711 seconds
#
# Revision: 0
# Processed by: cddbd v1.5.2PL0 Copyright (c) Steve Scherf et al.
# Submitted via: CDex 1.70beta2
#
DISCID=ad0a950e
DTITLE=Bare Egil Band - Jeg er helt rå
DYEAR=2008
DGENRE=VisePop
TTITLE0=Ikke Bare Bare Egil Band Band - Jeg er ikke pave
TTITLE1=Ikke Bare Bare Egil Band Band - Bøler IF
TTITLE2=Bare Egil Band - Pump opp oljen
TTITLE3=Ikke Bare Bare Egil Band Band - Krig er noe herk
TTITLE4=Bare Egil Band - Dommedag
TTITLE5=Ikke Bare Bare Egil Band Band - Konstruktiv Kritikk
TTITLE6=Ikke Bare Bare Egil Band Band - Jeg er helt rå
TTITLE7=Bare Egil Band - Abnostikon
TTITLE8=Ikke Bare Bare Egil Band Band - Raymond Dassrull Larsen - I love you
TTITLE9=Ikke Bare Bare Egil Band Band - Slepp meg inn
TTITLE10=Bare Egils Coverband - Gøy på landet
TTITLE11=Bare Egil Band - N' Narcissus, n' Loke, n' Orfeus og n' je
TTITLE12=Bare Egils Coverband - Umbrella
TTITLE13=Bare Egil og Ivar Band - Pump opp oljen (12" versjon)
EXTD=YEAR: 2008
EXTT0=
EXTT1=
EXTT2=
EXTT3=
EXTT4=
EXTT5=
EXTT6=
EXTT7=
EXTT8=
EXTT9=
EXTT10=
EXTT11=
EXTT12=
EXTT13=
PLAYORDER=
